<?xml version="1.0" standalone="no"?>
<!DOCTYPE svg PUBLIC "-//W3C//DTD SVG 20010904//EN"
 "http://www.w3.org/TR/2001/REC-SVG-20010904/DTD/svg10.dtd">
<svg version="1.0" xmlns="http://www.w3.org/2000/svg"
 width="90.000000pt" height="90.000000pt" viewBox="0 0 90.000000 90.000000"
 preserveAspectRatio="xMidYMid meet">
<metadata>
Created by potrace 1.11, written by Peter Selinger 2001-2013
</metadata>
<g transform="translate(0.000000,90.000000) scale(0.100000,-0.100000)"
fill="#000000" stroke="none">
<path d="M0 456 l0 -443 31 -7 c17 -3 111 -6 209 -6 194 0 189 -2 210 63 13
42 31 44 41 6 3 -13 11 -23 17 -22 7 2 11 0 10 -5 0 -4 2 -15 6 -24 7 -15 22
-18 102 -18 l94 0 0 78 c0 42 -5 84 -10 92 -8 12 -10 9 -10 -11 0 -15 -6 -32
-14 -38 -12 -10 -15 -7 -18 21 l-4 33 -11 -27 c-19 -42 -31 -42 -29 -1 3 48
14 73 33 73 7 0 13 6 12 12 -3 29 3 37 35 48 62 20 115 -22 164 -130 l30 -65
1 408 1 407 -450 0 -450 0 0 -444z m528 203 c46 -37 58 -60 38 -74 -26 -19
-18 -27 9 -9 l25 16 0 -50 c0 -28 -5 -54 -11 -58 -27 -16 16 -90 79 -133 30
-20 33 -26 19 -29 -18 -4 -18 -4 0 -19 13 -11 10 -10 -10 2 -26 15 -30 15 -53
1 -13 -9 -31 -28 -41 -42 -15 -24 -17 -25 -24 -8 -8 22 -3 53 18 109 15 41 9
43 -11 4 -6 -12 -21 -29 -34 -37 -20 -13 -22 -13 -16 2 3 9 1 16 -5 16 -6 0
-11 6 -11 14 0 12 -7 13 -32 5 -39 -11 -61 9 -52 47 4 16 1 23 -13 27 -15 3
-15 5 7 15 14 6 19 11 13 11 -7 1 -13 8 -13 17 0 8 -4 13 -9 9 -16 -9 -23 14
-16 55 7 39 35 58 35 25 0 -9 6 -18 13 -21 9 -3 12 -16 9 -34 -3 -22 1 -32 13
-36 12 -5 13 -9 4 -14 -9 -6 -8 -12 5 -25 9 -10 19 -16 21 -14 10 11 8 37 -5
59 -21 37 -21 80 -1 81 10 0 7 4 -9 10 -19 8 -21 12 -11 18 10 6 4 11 -18 16
-18 4 -30 9 -27 12 3 3 1 14 -5 25 -7 13 -7 23 0 32 6 7 8 16 4 19 -17 18 90
-24 115 -44z"/>
</g>
</svg>
